<svg id="Group_2" data-name="Group 2" xmlns="http://www.w3.org/2000/svg" xmlns:xlink="http://www.w3.org/1999/xlink" width="203.623" height="1189.526" viewBox="0 0 203.623 1189.526">
  <defs>
    <clipPath id="clip-path">
      <rect id="Rectangle_14" data-name="Rectangle 14" width="203.623" height="1189.526" fill="#161615" stroke="#454544" stroke-width="1"/>
    </clipPath>
  </defs>
  <g id="Group_32" data-name="Group 32" clip-path="url(#clip-path)">
    <path id="Path_228" data-name="Path 228" d="M64.779,49.037V159.389L22.33,134.884A12.343,12.343,0,0,0,9.991,156.265L64.779,187.89v54.222a12.338,12.338,0,0,0,24.677,0V202.137l42.45,24.505a12.342,12.342,0,0,0,18.511-10.691V75.175a12.342,12.342,0,0,0-18.511-10.691L89.456,89V49.037a12.338,12.338,0,0,0-24.677,0M125.74,96.549v98.036L89.456,173.636v-56.13Z" transform="translate(24.683 236.899)" fill="#161615" stroke="#454544" stroke-width="1"/>
    <path id="Path_229" data-name="Path 229" d="M24.579,3.617A12.338,12.338,0,0,0,7.127,21.062L19.674,33.61A72.069,72.069,0,0,0,6.366,73.987v.224A12.341,12.341,0,0,0,18.481,86.549l55.138,1.006,18.839,18.839,20.315,20.591c.239.239.574.343.828.559l20.062,20.062a12.341,12.341,0,0,0,17.453-17.453l-12.748-12.748A72.652,72.652,0,0,0,79.114,2.559a72.068,72.068,0,0,0-42,13.591ZM127.2,75.314a48.341,48.341,0,0,1-6.628,24.3l-10.78-10.78L87.9,66.643a12.314,12.314,0,0,0-8.559-3.668L32.9,62.126a48.072,48.072,0,0,1,94.3,13.188" transform="translate(22.687 -0.002)" fill="#161615" stroke="#454544" stroke-width="1"/>
    <path id="Path_230" data-name="Path 230" d="M4.31,183.829a9.252,9.252,0,1,0,18.5,0,51.165,51.165,0,0,1,102.33,0,9.256,9.256,0,1,0,18.511,0,69.672,69.672,0,1,0-139.345,0" transform="translate(27.822 736.878)" fill="#161615" stroke="#454544" stroke-width="1"/>
    <path id="Path_231" data-name="Path 231" d="M33.295,137.815H12.338a12.338,12.338,0,0,0,0,24.677H33.295a69.6,69.6,0,0,0,137.026,0h20.964a12.338,12.338,0,0,0,0-24.677H170.321a69.6,69.6,0,0,0-137.026,0m119.678,12.338A51.072,51.072,0,0,1,52.32,162.491h49.487a12.338,12.338,0,0,0,0-24.677H52.32a51.072,51.072,0,0,1,100.652,12.338" transform="translate(0 519.493)" fill="#161615" stroke="#454544" stroke-width="1"/>
    <path id="Path_232" data-name="Path 232" d="M61.641,146.75V252.2a12.338,12.338,0,1,0,24.677,0v-49.48a51.088,51.088,0,1,1-63.5,49.48,9.252,9.252,0,1,0-18.5,0,69.669,69.669,0,1,0,82.007-68.521V146.75a12.338,12.338,0,0,0-24.677,0" transform="translate(27.828 867.653)" fill="#161615" stroke="#454544" stroke-width="1"/>
  </g>
</svg>
