<svg id="Group_297" data-name="Group 297" xmlns="http://www.w3.org/2000/svg" width="17.407" height="17.407" viewBox="0 0 17.407 17.407">
  <path id="Path_5710" data-name="Path 5710" d="M4386.435,237.452a6.391,6.391,0,0,0-.4-2.113,4.451,4.451,0,0,0-2.545-2.545,6.391,6.391,0,0,0-2.113-.4c-.928-.042-1.225-.052-3.588-.052s-2.66.01-3.588.052a6.388,6.388,0,0,0-2.113.4,4.451,4.451,0,0,0-2.545,2.545,6.389,6.389,0,0,0-.4,2.113c-.042.928-.052,1.225-.052,3.588s.01,2.66.052,3.588a6.39,6.39,0,0,0,.4,2.113,4.451,4.451,0,0,0,2.545,2.545,6.391,6.391,0,0,0,2.113.4c.928.042,1.225.052,3.588.052s2.66-.01,3.588-.052a6.394,6.394,0,0,0,2.113-.4,4.451,4.451,0,0,0,2.545-2.545,6.391,6.391,0,0,0,.4-2.113c.042-.928.053-1.225.053-3.588s-.01-2.66-.053-3.588m-8.651,8.058a4.469,4.469,0,1,1,4.469-4.469,4.47,4.47,0,0,1-4.469,4.469m4.646-8.071a1.044,1.044,0,1,1,1.044-1.044,1.044,1.044,0,0,1-1.044,1.044" transform="translate(-4369.08 -232.337)" fill="#fff"/>
  <path id="Path_5711" data-name="Path 5711" d="M4431.8,292.162a2.9,2.9,0,1,0,2.9,2.9,2.9,2.9,0,0,0-2.9-2.9" transform="translate(-4423.102 -286.36)" fill="#fff"/>
</svg>
