<svg xmlns="http://www.w3.org/2000/svg" width="16.688" height="18.899" viewBox="0 0 16.688 18.899">
  <path id="Union_1" data-name="Union 1" d="M14.63,17.117l-1.154-1.058-1.22-1.125.505,1.744H1.954A1.956,1.956,0,0,1,0,14.725V1.954A1.956,1.956,0,0,1,1.954,0H14.725a1.971,1.971,0,0,1,1.963,1.954V18.9ZM4.2,5.4a12.581,12.581,0,0,0-1.373,5.509,3.462,3.462,0,0,0,2.907,1.439s.352-.419.638-.782a2.98,2.98,0,0,1-1.668-1.115s.1.067.267.162c.01,0,.019.01.038.019s.057.028.086.048a5.586,5.586,0,0,0,.7.324,7.244,7.244,0,0,0,1.4.41,6.673,6.673,0,0,0,2.469.01,6.837,6.837,0,0,0,1.382-.41,5.457,5.457,0,0,0,1.1-.562,3.022,3.022,0,0,1-1.725,1.125c.286.353.629.762.629.762a3.492,3.492,0,0,0,2.907-1.43A12.584,12.584,0,0,0,12.581,5.4a4.7,4.7,0,0,0-2.669-.991l-.133.152a6.259,6.259,0,0,1,2.373,1.2,7.917,7.917,0,0,0-2.869-.905,8.058,8.058,0,0,0-1.925.019A.939.939,0,0,0,7.2,4.9a7.473,7.473,0,0,0-2.163.6c-.352.152-.562.267-.562.267a6.254,6.254,0,0,1,2.5-1.239l-.1-.114H6.861A4.758,4.758,0,0,0,4.2,5.4ZM9.121,8.978a.975.975,0,1,1,.972,1.049A1.007,1.007,0,0,1,9.121,8.978Zm-3.479,0a.975.975,0,1,1,1.944,0,1.007,1.007,0,0,1-.972,1.049A1.013,1.013,0,0,1,5.642,8.978Z" fill="#fff"/>
</svg>
