<svg xmlns="http://www.w3.org/2000/svg" width="9.828" height="18.899" viewBox="0 0 9.828 18.899">
  <path id="Path_5937" data-name="Path 5937" d="M541.606,203.779h-3.479c0-.05-.009-.1-.009-.151q0-4.164,0-8.328v-.148h-2.905v-3.365h2.905v-.14c0-.812,0-1.624,0-2.435a5.227,5.227,0,0,1,.307-1.8,3.636,3.636,0,0,1,1.855-2.085,4.444,4.444,0,0,1,1.968-.452c.734,0,1.469.036,2.2.062.2.007.394.036.589.055v3.027H544.9c-.536,0-1.073-.006-1.609,0a3.784,3.784,0,0,0-.689.068,1.1,1.1,0,0,0-.932.933,3.538,3.538,0,0,0-.055.615c-.007.674,0,1.348,0,2.022v.13h3.321l-.436,3.365h-2.885v.152q0,4.158,0,8.317c0,.05-.006.1-.009.151" transform="translate(-535.213 -184.88)" fill="#fff"/>
</svg>
