<svg xmlns="http://www.w3.org/2000/svg" width="19.922" height="16.231" viewBox="0 0 19.922 16.231">
  <path id="Path_233" data-name="Path 233" d="M6.583,214.291H5.917a.846.846,0,0,0-.095-.013,10.783,10.783,0,0,1-1.23-.107,11.548,11.548,0,0,1-4.525-1.653c-.023-.015-.045-.033-.067-.049l.005-.018a8.242,8.242,0,0,0,3.157-.254,7.938,7.938,0,0,0,2.819-1.433,4.384,4.384,0,0,1-1.618-.4,4.19,4.19,0,0,1-1.338-1,3.547,3.547,0,0,1-.8-1.458,3.87,3.87,0,0,0,1.761-.073,4.279,4.279,0,0,1-1.67-.805,4.055,4.055,0,0,1-1.15-1.438,3.783,3.783,0,0,1-.386-1.8,5.369,5.369,0,0,0,.868.338,3.374,3.374,0,0,0,.922.135A4.107,4.107,0,0,1,.9,201.782a4.063,4.063,0,0,1,.45-2.976,11.69,11.69,0,0,0,3.765,3.037,11.55,11.55,0,0,0,4.669,1.245c-.007-.049-.01-.08-.016-.111a3.963,3.963,0,0,1,.187-2.274,4.029,4.029,0,0,1,3.183-2.592c.123-.023.248-.034.372-.051h.561c.144.02.289.036.433.062a4.035,4.035,0,0,1,2.2,1.156.163.163,0,0,0,.177.054c.175-.047.353-.083.527-.131a8.128,8.128,0,0,0,1.847-.771c.031-.017.064-.03.1-.045l.016.021a4.176,4.176,0,0,1-1.728,2.2.182.182,0,0,0,.069,0,8.123,8.123,0,0,0,1.911-.5l.31-.121v.018c-.021.024-.043.047-.061.073a8.263,8.263,0,0,1-1.883,1.951.2.2,0,0,0-.092.19,11.439,11.439,0,0,1-.09,1.879,12.168,12.168,0,0,1-3.552,7.067,10.85,10.85,0,0,1-1.961,1.507,11.382,11.382,0,0,1-5.525,1.6c-.058,0-.116.01-.174.015" transform="translate(0 -198.06)" fill="#fff"/>
</svg>
