<?xml version="1.0" encoding="UTF-8"?>
<svg xmlns="http://www.w3.org/2000/svg" xmlns:xlink="http://www.w3.org/1999/xlink" width="121.565" height="35.302" viewBox="0 0 121.565 35.302">
  <defs>
    <clipPath id="clip-path">
      <rect id="Rectangle_10" data-name="Rectangle 10" width="121.565" height="35.302" fill="none"></rect>
    </clipPath>
    <clipPath id="clip-path-2">
      <path id="Path_27" data-name="Path 27" d="M24.225,12.262a7.371,7.371,0,0,0-3.734,2.222l-.019.019A7.162,7.162,0,0,0,19.1,16.789V16.8s0,.009-.008.009a6.886,6.886,0,0,0-.384,1.569.115.115,0,0,0-.009.056,7.152,7.152,0,0,0,.149,2.586,5.975,5.975,0,0,0,.328,1.008,7.251,7.251,0,0,0,8.419,4.358,7.463,7.463,0,0,0,3.072-1.577,6.139,6.139,0,0,0,.9-.933,7.208,7.208,0,0,0,1.409-6.246.231.231,0,0,0-.019-.075,3.764,3.764,0,0,0-.131-.466c-.009-.019-.009-.038-.019-.057a7.232,7.232,0,0,0-3.9-4.311,7.113,7.113,0,0,0-2.993-.659,7.206,7.206,0,0,0-1.685.2M13.14,15.277c-.1.148-.215.3-.317.447A39.8,39.8,0,0,0,8.7,23.285c-.038.1-.084.205-.132.317a53.584,53.584,0,0,0-3.1,10.538,1.62,1.62,0,0,0,2.409,1.708c3.219-1.951,7.355-2.968,11.8-3.575,2.165-.308,4.406-.513,6.655-.691a1.462,1.462,0,0,0,.28-.047,12.226,12.226,0,0,1-12.256-8.242.029.029,0,0,1-.009-.019,11.423,11.423,0,0,1-.327-1.11,12.052,12.052,0,0,1-.187-4.752A12.206,12.206,0,0,1,16.341,11.7a23.782,23.782,0,0,0-3.2,3.576" transform="translate(-5.437 -11.701)" fill="none"></path>
    </clipPath>
    <linearGradient id="linear-gradient" x1="0.033" y1="0.438" x2="0.65" y2="0.472" gradientUnits="objectBoundingBox">
      <stop offset="0" stop-color="#eb621b"></stop>
      <stop offset="1" stop-color="#dd1823"></stop>
    </linearGradient>
  </defs>
  <g id="Group_4" data-name="Group 4" transform="translate(0 0)">
    <g id="Group_23" data-name="Group 23" transform="translate(0 0)">
      <g id="Group_22" data-name="Group 22" clip-path="url(#clip-path)">
        <path id="Path_22" data-name="Path 22" d="M56.034,29.078c-6.969,0-12.1-4.359-12.1-10.112,0-5.812,5.13-9.726,12.1-9.726H70.268l-4.389,5.782H56.034c-3.173,0-5.219,1.008-5.219,3.945,0,2.965,2.046,4.418,5.219,4.418H70.268l-4.389,5.694Z" transform="translate(-2.925 -0.615)" fill="#fff"></path>
        <path id="Path_23" data-name="Path 23" d="M83.918,23.55v5.529H77.038V9.241H99.693l-4.418,5.782H83.918v3.16h8.943L88.68,23.55Z" transform="translate(-5.129 -0.615)" fill="#fff"></path>
        <path id="Path_24" data-name="Path 24" d="M105.272,29.053l4.151-5.694h3.543c.949,0,2.076,0,2.7.06a22.214,22.214,0,0,1-1.364-1.868l-3.322-4.834-8.867,12.336H93.988L106.68,11.378a5.252,5.252,0,0,1,4.418-2.52,5.124,5.124,0,0,1,4.389,2.52l12.336,17.674Z" transform="translate(-6.258 -0.589)" fill="#fff"></path>
        <path id="Path_25" data-name="Path 25" d="M24.448,6.442a42.484,42.484,0,0,0-12.1,2.39A23.6,23.6,0,0,0,9.8,2.437,1.62,1.62,0,0,1,11.511.029,49.41,49.41,0,0,1,28.732,6.582a.4.4,0,0,0-.1-.019,26.54,26.54,0,0,0-4.182-.121" transform="translate(-0.637 0)" fill="#1283b1"></path>
        <path id="Path_26" data-name="Path 26" d="M11.779,14.257A35.228,35.228,0,0,0,6.29,21.949a21.962,21.962,0,0,0-5.078-2.016A1.618,1.618,0,0,1,.718,17.02a53.032,53.032,0,0,1,9.754-5.3c.532-.224,1.073-.439,1.615-.635A38.435,38.435,0,0,1,17.7,9.441a27.027,27.027,0,0,0-5.162,4.051c-.252.243-.5.495-.756.765" transform="translate(0 -0.628)" fill="#bdc14c"></path>
      </g>
    </g>
    <g id="Group_25" data-name="Group 25" transform="translate(5.075 10.922)">
      <g id="Group_24" data-name="Group 24" clip-path="url(#clip-path-2)">
        <rect id="Rectangle_11" data-name="Rectangle 11" width="37.6" height="37.6" transform="translate(-12.657 12.433) rotate(-45)" fill="url(#linear-gradient)"></rect>
      </g>
    </g>
  </g>
</svg>
