<svg id="Group_293" data-name="Group 293" xmlns="http://www.w3.org/2000/svg" xmlns:xlink="http://www.w3.org/1999/xlink" width="4501.777" height="175.976" viewBox="0 0 4501.777 175.976">
  <defs>
    <clipPath id="clip-path">
      <rect id="Rectangle_91" data-name="Rectangle 91" width="4501.777" height="175.976" fill="none" stroke="#fff" stroke-width="1"/>
    </clipPath>
  </defs>
  <g id="Group_292" data-name="Group 292" clip-path="url(#clip-path)">
    <path id="Path_5709" data-name="Path 5709" d="M4501.714,163.746l-12.368,1.566-12.269,1.4-12.172,1.217-12.122,1.021-12.025.83-11.926.652-11.877.491-11.828.363-23.558.6-23.606.7-11.73.211-11.583-.172-11.386-.707-11.141-1.31-10.994-1.8-10.8-2.189-10.7-2.508-10.6-2.871-10.405-3.318-10.258-3.779-10.159-4.069-10.257-3.945-10.5-3.146-11.141-1.591-11.926.521-12.761,2.714-13.3,4.436-27.239,10.582-13.3,4.461-12.81,3.136-12.171,1.527-11.632-.241-10.945-2.037-10.355-3.779-9.816-5.4-9.374-6.852-8.932-8.083-8.687-9.065-8.466-9.781-8.363-10.228-8.358-10.395-8.432-10.292-8.609-9.909-8.853-9.271-9.183-8.383-9.571-7.293-10-6.051-10.439-4.731L3931.9,43.6l-11.312-2.051-11.72-.761-12.1.486-12.461,1.664-12.8,2.792-13.1,3.863-13.379,4.858L3831.4,60.239l-13.855,6.63L3803.5,74.251l-14.194,8.024L3775,90.815l-14.376,8.917-14.4,9.134-14.371,9.188-14.286,9.045-14.16,8.711-13.972,8.182-13.738,7.43-13.447,6.479-13.109,5.325-12.736,3.99-12.329,2.518-11.921.971-11.529-.52-11.224-1.742-11.057-2.42-11.1-2.316-11.332-1.414-11.686.01-12.034,1.433-12.25,2.366-12.3,2.606-12.191,2.213-12,1.438-11.784.516-11.568-.4-11.381-1.227L3437.5,169.3l-11.1-2.548-11-3.023-10.939-3.386-10.9-3.647-10.881-3.818-21.761-7.833-10.915-3.887-10.955-3.784-10.993-3.647-11.053-3.474-11.106-3.264-11.161-3.043-11.229-2.8-11.283-2.557-11.337-2.322-11.4-2.071-11.454-1.811-11.534-1.414-11.637-.893L3203.075,110l-11.951.839-12.128,1.9-12.264,2.714-12.343,3.264-12.354,3.436-12.333,3.381-12.3,3.279-12.289,3.312-12.314,3.544-12.368,3.975-12.417,4.432-12.452,4.785-12.451,4.913-12.4,4.751-12.324,4.348-12.22,3.735-12.093,2.974-11.956,2.1-11.818,1.134-11.676.123-11.538-.923-11.411-1.963-11.288-2.955-11.2-3.823-11.136-4.452-11.126-4.667-11.2-4.294-11.328-3.3-11.509-1.826-11.7-.241-11.848,1.129-11.94,2.042-11.986,2.527-23.96,5.35-11.95,2.567-11.927,2.429-11.9,2.273-11.877,2.1-11.848,1.919-11.823,1.723-11.8,1.526-11.78,1.325-11.754,1.119-11.73.923-11.715.731-11.7.55-11.681.383-11.671.24-11.666.108-11.651.015-11.652-.064-34.948-.329-11.652-.054-11.656.01-23.317.142-11.657.025-11.646-.128-11.641-.407-11.627-.825-11.607-1.389-11.588-2.1-11.578-2.92-11.562-3.8-11.559-4.564-11.567-5-11.593-4.765-11.641-3.711-11.686-1.919-11.73.172-11.749,2.027-11.76,3.244-23.474,7.519-11.715,3.45-11.7,3.029-11.681,2.591-11.671,2.179-11.666,1.8-11.657,1.463-11.651,1.163-11.651.9-11.651.687-11.652.506-11.651.363-11.651.24-11.652.152-11.651.084-11.656.034h-58.271l-11.662-.088-11.661-.2-11.671-.339-11.68-.476-11.686-.6-11.695-.7-11.7-.765-23.415-1.585L1944,169.807l-11.705-.618-11.695-.437-11.686-.226-11.666.035-11.651.284-11.632.54-11.612.731-11.6.879-23.175,1.845-11.593.8-11.607.609-11.627.343-11.651.025-11.691-.334-11.724-.7-11.764-1.079-11.8-1.434-11.843-1.752-11.882-2.026-11.916-2.243-11.941-2.4-23.936-5.011-11.98-2.474-11.98-2.361-11.97-2.179-11.946-1.943-11.921-1.63-11.877-1.256-11.823-.795-11.755-.231-11.666.412-11.563,1.183-11.445,1.968-11.327,2.754-11.225,3.4-11.155,3.745-11.136,3.793-11.185,3.338-11.274,2.66-11.4,1.752-11.5,1.07-11.568.618-11.578.54-23.13,1.168-11.608.314-11.7-.255-11.852-1.109L1349,169.959l-12.25-3.322-12.486-4.53-12.726-5.752-12.972-6.945-13.212-8.073-13.438-9.114-13.663-10.037L1244.4,111.359,1230.377,99.9l-14.169-11.906-28.613-24.432L1173.22,51.429l-14.356-11.794L1144.583,28.47l-14.111-10.12-13.8-8.476-13.34-6.11L1090.606.583,1078.542.5l-11.46,2.645-11,4.638L1045.36,13.6,1034.8,19.97l-20.957,13.1-10.458,6.458-10.459,6.327-10.468,6.164L971.967,58l-10.512,5.767-10.542,5.531-10.582,5.291-10.62,5.03-10.665,4.766-10.714,4.485-10.768,4.211-10.817,3.932-10.876,3.651-10.93,3.372-10.988,3.1L842.9,109.97,831.8,112.547l-11.16,2.321-11.215,2.081L798.15,118.8l-11.332,1.624-11.382,1.409-11.43,1.2-11.484,1.011-11.529.825-11.578.657-11.622.5-11.661.344-11.7.211-11.74.083-11.774-.029-11.8-.128-11.828-.216L635.434,126l-11.872-.338-47.567-1.581-11.887-.358-11.867-.3L540.4,123.2l-11.809-.118-11.769,0-11.72.152-11.666.329-11.592.52-11.519.737-11.44.961-11.357,1.178-11.293,1.365-11.239,1.5-22.405,3.136-11.2,1.526-11.229,1.443-11.259,1.35-11.288,1.241-22.63,2.307-11.264,1.266-11.126,1.625-10.881,2.267-10.532,3.156L281,153.2l-9.933,4.657-9.939,4.594L250.882,166.2l-10.8,2.262-11.43.614-11.912-.618-12.073-1.021-11.9-.57-11.553.31-11.254,1.04-11.214,1.134-11.48.471-11.99-.8-12.638-2.371-13.3-3.955-13.875-5.3-14.271-6.194-14.425-6.493-14.306-6.145-13.949-5.241L25.07,129.342,12.227,126.8.041,125.813" fill="none" stroke="#fff" stroke-miterlimit="10" stroke-width="1"/>
  </g>
</svg>
